<?xml version="1.0" encoding="UTF-8"?>
<svg version="1.1" xmlns="http://www.w3.org/2000/svg" width="1000" height="1000">
<path d="M0 0 C2.90284617 1.61555022 5.10755707 3.80091585 7.42389107 6.14218903 C7.95887614 6.67108299 8.49386121 7.19997696 9.04505795 7.74489802 C10.83872076 9.52189004 12.62145942 11.3094512 14.40440559 13.09719086 C15.68678324 14.37223073 16.96978302 15.64664515 18.25335884 16.92047882 C21.73954745 20.38441637 25.21599829 23.85797326 28.69013047 27.33399796 C31.58795291 30.23193989 34.49010001 33.12553188 37.39214963 36.0192396 C44.23501213 42.84285649 51.06965499 49.67463192 57.89952278 56.51125336 C64.95498815 63.57336652 72.02509639 70.62057601 79.10239059 77.66080743 C85.17166893 83.69944755 91.23129877 89.74765202 97.2833268 95.80358046 C100.90102667 99.42335325 104.52244598 103.03920354 108.15336227 106.64572334 C111.56502933 110.03522199 114.96455074 113.43644005 118.35493469 116.84722328 C119.60393928 118.09965507 120.85726107 119.34779782 122.11507607 120.59138107 C123.82604857 122.28431718 125.52102895 123.99177509 127.21270943 125.7039566 C127.97172089 126.44419129 127.97172089 126.44419129 128.74606591 127.19938022 C131.9662391 130.50433625 131.9662391 130.50433625 132.11438942 133.11270714 C130.4988392 136.01555331 128.31347357 138.22026421 125.97220039 140.53659821 C125.44330643 141.07158328 124.91441246 141.60656835 124.3694914 142.15776509 C122.59249938 143.9514279 120.80493822 145.73416656 119.01719856 147.51711273 C117.74215869 148.79949038 116.46774427 150.08249016 115.1939106 151.36606598 C111.72997305 154.85225458 108.25641616 158.32870543 104.78039145 161.80283761 C101.88244953 164.70066005 98.98885754 167.60280714 96.09514982 170.50485677 C89.27153293 177.34771926 82.4397575 184.18236213 75.60313606 191.01222992 C68.54102289 198.06769529 61.49381341 205.13780353 54.45358199 212.21509773 C48.41494187 218.28437607 42.3667374 224.3440059 36.31080896 230.39603394 C32.69103617 234.01373381 29.07518588 237.63515312 25.46866608 241.26606941 C22.07916743 244.67773647 18.67794937 248.07725788 15.26716614 251.46764183 C14.01473435 252.71664642 12.7665916 253.96996821 11.52300835 255.2277832 C9.83007224 256.93875571 8.12261433 258.63373609 6.41043282 260.32541656 C5.67019813 261.08442803 5.67019813 261.08442803 4.9150092 261.85877305 C1.61005317 265.07894624 1.61005317 265.07894624 -0.99831772 265.22709656 C-3.90116389 263.61154633 -6.10587479 261.42618071 -8.42220879 259.08490753 C-8.95719386 258.55601356 -9.49217893 258.02711959 -10.04337567 257.48219854 C-11.83703848 255.70520652 -13.61977714 253.91764536 -15.40272331 252.1299057 C-16.68510096 250.85486583 -17.96810074 249.58045141 -19.25167656 248.30661774 C-22.73786516 244.84268019 -26.21431601 241.3691233 -29.68844819 237.89309859 C-32.58627063 234.99515666 -35.48841772 232.10156468 -38.39046735 229.20785695 C-45.23332984 222.38424007 -52.06797271 215.55246464 -58.8978405 208.7158432 C-65.95330587 201.65373003 -73.02341411 194.60652055 -80.10070831 187.56628913 C-86.16998665 181.527649 -92.22961648 175.47944454 -98.28164452 169.42351609 C-101.89934439 165.8037433 -105.5207637 162.18789301 -109.15167999 158.58137321 C-112.56334705 155.19187457 -115.96286846 151.7906565 -119.35325241 148.37987328 C-120.602257 147.12744149 -121.85557879 145.87929874 -123.11339378 144.63571548 C-124.82436629 142.94277937 -126.51934667 141.23532147 -128.21102715 139.52313995 C-128.97003861 138.78290526 -128.97003861 138.78290526 -129.74438363 138.02771634 C-132.96455682 134.72276031 -132.96455682 134.72276031 -133.11270714 132.11438942 C-131.49715691 129.21154325 -129.31179129 127.00683235 -126.97051811 124.69049835 C-126.44162414 124.15551328 -125.91273018 123.62052821 -125.36780912 123.06933147 C-123.5908171 121.27566866 -121.80325594 119.49293 -120.01551628 117.70998383 C-118.74047641 116.42760618 -117.46606199 115.1446064 -116.19222832 113.86103058 C-112.72829077 110.37484197 -109.25473388 106.89839113 -105.77870917 103.42425895 C-102.88076724 100.52643651 -99.98717526 97.62428941 -97.09346753 94.72223979 C-90.26985065 87.87937729 -83.43807522 81.04473443 -76.60145378 74.21486664 C-69.53934061 67.15940127 -62.49213113 60.08929303 -55.45189971 53.01199883 C-49.41325958 46.94272049 -43.36505512 40.88309065 -37.30912668 34.83106261 C-33.68935388 31.21336275 -30.07350359 27.59194344 -26.4669838 23.96102715 C-23.07748515 20.54936009 -19.67626708 17.14983868 -16.26548386 13.75945473 C-15.01305207 12.51045014 -13.76490932 11.25712835 -12.52132607 9.99931335 C-10.82838995 8.28834085 -9.12093205 6.59336047 -7.40875053 4.90167999 C-6.91526074 4.39567235 -6.42177095 3.88966471 -5.91332692 3.3683235 C-2.60837089 0.14815032 -2.60837089 0.14815032 0 0 Z " fill="#92D050" transform="translate(503.99915885925293,674.8864517211914)"/>
<path d="M0 0 C2.90284617 1.61555022 5.10755707 3.80091585 7.42389107 6.14218903 C7.95887614 6.67108299 8.49386121 7.19997696 9.04505795 7.74489802 C10.83872076 9.52189004 12.62145942 11.3094512 14.40440559 13.09719086 C15.68678324 14.37223073 16.96978302 15.64664515 18.25335884 16.92047882 C21.73954745 20.38441637 25.21599829 23.85797326 28.69013047 27.33399796 C31.58795291 30.23193989 34.49010001 33.12553188 37.39214963 36.0192396 C44.23501213 42.84285649 51.06965499 49.67463192 57.89952278 56.51125336 C64.95498815 63.57336652 72.02509639 70.62057601 79.10239059 77.66080743 C85.17166893 83.69944755 91.23129877 89.74765202 97.2833268 95.80358046 C100.90102667 99.42335325 104.52244598 103.03920354 108.15336227 106.64572334 C111.56502933 110.03522199 114.96455074 113.43644005 118.35493469 116.84722328 C119.60393928 118.09965507 120.85726107 119.34779782 122.11507607 120.59138107 C123.82604857 122.28431718 125.52102895 123.99177509 127.21270943 125.7039566 C127.97172089 126.44419129 127.97172089 126.44419129 128.74606591 127.19938022 C131.9662391 130.50433625 131.9662391 130.50433625 132.11438942 133.11270714 C130.4988392 136.01555331 128.31347357 138.22026421 125.97220039 140.53659821 C125.44330643 141.07158328 124.91441246 141.60656835 124.3694914 142.15776509 C122.59249938 143.9514279 120.80493822 145.73416656 119.01719856 147.51711273 C117.74215869 148.79949038 116.46774427 150.08249016 115.1939106 151.36606598 C111.72997305 154.85225458 108.25641616 158.32870543 104.78039145 161.80283761 C101.88244953 164.70066005 98.98885754 167.60280714 96.09514982 170.50485677 C89.27153293 177.34771926 82.4397575 184.18236213 75.60313606 191.01222992 C68.54102289 198.06769529 61.49381341 205.13780353 54.45358199 212.21509773 C48.41494187 218.28437607 42.3667374 224.3440059 36.31080896 230.39603394 C32.69103617 234.01373381 29.07518588 237.63515312 25.46866608 241.26606941 C22.07916743 244.67773647 18.67794937 248.07725788 15.26716614 251.46764183 C14.01473435 252.71664642 12.7665916 253.96996821 11.52300835 255.2277832 C9.83007224 256.93875571 8.12261433 258.63373609 6.41043282 260.32541656 C5.67019813 261.08442803 5.67019813 261.08442803 4.9150092 261.85877305 C1.61005317 265.07894624 1.61005317 265.07894624 -0.99831772 265.22709656 C-3.90116389 263.61154633 -6.10587479 261.42618071 -8.42220879 259.08490753 C-8.95719386 258.55601356 -9.49217893 258.02711959 -10.04337567 257.48219854 C-11.83703848 255.70520652 -13.61977714 253.91764536 -15.40272331 252.1299057 C-16.68510096 250.85486583 -17.96810074 249.58045141 -19.25167656 248.30661774 C-22.73786516 244.84268019 -26.21431601 241.3691233 -29.68844819 237.89309859 C-32.58627063 234.99515666 -35.48841772 232.10156468 -38.39046735 229.20785695 C-45.23332984 222.38424007 -52.06797271 215.55246464 -58.8978405 208.7158432 C-65.95330587 201.65373003 -73.02341411 194.60652055 -80.10070831 187.56628913 C-86.16998665 181.527649 -92.22961648 175.47944454 -98.28164452 169.42351609 C-101.89934439 165.8037433 -105.5207637 162.18789301 -109.15167999 158.58137321 C-112.56334705 155.19187457 -115.96286846 151.7906565 -119.35325241 148.37987328 C-120.602257 147.12744149 -121.85557879 145.87929874 -123.11339378 144.63571548 C-124.82436629 142.94277937 -126.51934667 141.23532147 -128.21102715 139.52313995 C-128.97003861 138.78290526 -128.97003861 138.78290526 -129.74438363 138.02771634 C-132.96455682 134.72276031 -132.96455682 134.72276031 -133.11270714 132.11438942 C-131.49715691 129.21154325 -129.31179129 127.00683235 -126.97051811 124.69049835 C-126.44162414 124.15551328 -125.91273018 123.62052821 -125.36780912 123.06933147 C-123.5908171 121.27566866 -121.80325594 119.49293 -120.01551628 117.70998383 C-118.74047641 116.42760618 -117.46606199 115.1446064 -116.19222832 113.86103058 C-112.72829077 110.37484197 -109.25473388 106.89839113 -105.77870917 103.42425895 C-102.88076724 100.52643651 -99.98717526 97.62428941 -97.09346753 94.72223979 C-90.26985065 87.87937729 -83.43807522 81.04473443 -76.60145378 74.21486664 C-69.53934061 67.15940127 -62.49213113 60.08929303 -55.45189971 53.01199883 C-49.41325958 46.94272049 -43.36505512 40.88309065 -37.30912668 34.83106261 C-33.68935388 31.21336275 -30.07350359 27.59194344 -26.4669838 23.96102715 C-23.07748515 20.54936009 -19.67626708 17.14983868 -16.26548386 13.75945473 C-15.01305207 12.51045014 -13.76490932 11.25712835 -12.52132607 9.99931335 C-10.82838995 8.28834085 -9.12093205 6.59336047 -7.40875053 4.90167999 C-6.91526074 4.39567235 -6.42177095 3.88966471 -5.91332692 3.3683235 C-2.60837089 0.14815032 -2.60837089 0.14815032 0 0 Z " fill="#00B0F0" transform="translate(657.9991588592529,521.8864517211914)"/>
<path d="M0 0 C2.90284617 1.61555022 5.10755707 3.80091585 7.42389107 6.14218903 C7.95887614 6.67108299 8.49386121 7.19997696 9.04505795 7.74489802 C10.83872076 9.52189004 12.62145942 11.3094512 14.40440559 13.09719086 C15.68678324 14.37223073 16.96978302 15.64664515 18.25335884 16.92047882 C21.73954745 20.38441637 25.21599829 23.85797326 28.69013047 27.33399796 C31.58795291 30.23193989 34.49010001 33.12553188 37.39214963 36.0192396 C44.23501213 42.84285649 51.06965499 49.67463192 57.89952278 56.51125336 C64.95498815 63.57336652 72.02509639 70.62057601 79.10239059 77.66080743 C85.17166893 83.69944755 91.23129877 89.74765202 97.2833268 95.80358046 C100.90102667 99.42335325 104.52244598 103.03920354 108.15336227 106.64572334 C111.56502933 110.03522199 114.96455074 113.43644005 118.35493469 116.84722328 C119.60393928 118.09965507 120.85726107 119.34779782 122.11507607 120.59138107 C123.82604857 122.28431718 125.52102895 123.99177509 127.21270943 125.7039566 C127.97172089 126.44419129 127.97172089 126.44419129 128.74606591 127.19938022 C131.9662391 130.50433625 131.9662391 130.50433625 132.11438942 133.11270714 C130.4988392 136.01555331 128.31347357 138.22026421 125.97220039 140.53659821 C125.44330643 141.07158328 124.91441246 141.60656835 124.3694914 142.15776509 C122.59249938 143.9514279 120.80493822 145.73416656 119.01719856 147.51711273 C117.74215869 148.79949038 116.46774427 150.08249016 115.1939106 151.36606598 C111.72997305 154.85225458 108.25641616 158.32870543 104.78039145 161.80283761 C101.88244953 164.70066005 98.98885754 167.60280714 96.09514982 170.50485677 C89.27153293 177.34771926 82.4397575 184.18236213 75.60313606 191.01222992 C68.54102289 198.06769529 61.49381341 205.13780353 54.45358199 212.21509773 C48.41494187 218.28437607 42.3667374 224.3440059 36.31080896 230.39603394 C32.69103617 234.01373381 29.07518588 237.63515312 25.46866608 241.26606941 C22.07916743 244.67773647 18.67794937 248.07725788 15.26716614 251.46764183 C14.01473435 252.71664642 12.7665916 253.96996821 11.52300835 255.2277832 C9.83007224 256.93875571 8.12261433 258.63373609 6.41043282 260.32541656 C5.67019813 261.08442803 5.67019813 261.08442803 4.9150092 261.85877305 C1.61005317 265.07894624 1.61005317 265.07894624 -0.99831772 265.22709656 C-3.90116389 263.61154633 -6.10587479 261.42618071 -8.42220879 259.08490753 C-8.95719386 258.55601356 -9.49217893 258.02711959 -10.04337567 257.48219854 C-11.83703848 255.70520652 -13.61977714 253.91764536 -15.40272331 252.1299057 C-16.68510096 250.85486583 -17.96810074 249.58045141 -19.25167656 248.30661774 C-22.73786516 244.84268019 -26.21431601 241.3691233 -29.68844819 237.89309859 C-32.58627063 234.99515666 -35.48841772 232.10156468 -38.39046735 229.20785695 C-45.23332984 222.38424007 -52.06797271 215.55246464 -58.8978405 208.7158432 C-65.95330587 201.65373003 -73.02341411 194.60652055 -80.10070831 187.56628913 C-86.16998665 181.527649 -92.22961648 175.47944454 -98.28164452 169.42351609 C-101.89934439 165.8037433 -105.5207637 162.18789301 -109.15167999 158.58137321 C-112.56334705 155.19187457 -115.96286846 151.7906565 -119.35325241 148.37987328 C-120.602257 147.12744149 -121.85557879 145.87929874 -123.11339378 144.63571548 C-124.82436629 142.94277937 -126.51934667 141.23532147 -128.21102715 139.52313995 C-128.97003861 138.78290526 -128.97003861 138.78290526 -129.74438363 138.02771634 C-132.96455682 134.72276031 -132.96455682 134.72276031 -133.11270714 132.11438942 C-131.49715691 129.21154325 -129.31179129 127.00683235 -126.97051811 124.69049835 C-126.44162414 124.15551328 -125.91273018 123.62052821 -125.36780912 123.06933147 C-123.5908171 121.27566866 -121.80325594 119.49293 -120.01551628 117.70998383 C-118.74047641 116.42760618 -117.46606199 115.1446064 -116.19222832 113.86103058 C-112.72829077 110.37484197 -109.25473388 106.89839113 -105.77870917 103.42425895 C-102.88076724 100.52643651 -99.98717526 97.62428941 -97.09346753 94.72223979 C-90.26985065 87.87937729 -83.43807522 81.04473443 -76.60145378 74.21486664 C-69.53934061 67.15940127 -62.49213113 60.08929303 -55.45189971 53.01199883 C-49.41325958 46.94272049 -43.36505512 40.88309065 -37.30912668 34.83106261 C-33.68935388 31.21336275 -30.07350359 27.59194344 -26.4669838 23.96102715 C-23.07748515 20.54936009 -19.67626708 17.14983868 -16.26548386 13.75945473 C-15.01305207 12.51045014 -13.76490932 11.25712835 -12.52132607 9.99931335 C-10.82838995 8.28834085 -9.12093205 6.59336047 -7.40875053 4.90167999 C-6.91526074 4.39567235 -6.42177095 3.88966471 -5.91332692 3.3683235 C-2.60837089 0.14815032 -2.60837089 0.14815032 0 0 Z " fill="#00B0F0" transform="translate(350.99915885925293,521.8864517211914)"/>
<path d="M0 0 C2.90284617 1.61555022 5.10755707 3.80091585 7.42389107 6.14218903 C7.95887614 6.67108299 8.49386121 7.19997696 9.04505795 7.74489802 C10.83872076 9.52189004 12.62145942 11.3094512 14.40440559 13.09719086 C15.68678324 14.37223073 16.96978302 15.64664515 18.25335884 16.92047882 C21.73954745 20.38441637 25.21599829 23.85797326 28.69013047 27.33399796 C31.58795291 30.23193989 34.49010001 33.12553188 37.39214963 36.0192396 C44.23501213 42.84285649 51.06965499 49.67463192 57.89952278 56.51125336 C64.95498815 63.57336652 72.02509639 70.62057601 79.10239059 77.66080743 C85.17166893 83.69944755 91.23129877 89.74765202 97.2833268 95.80358046 C100.90102667 99.42335325 104.52244598 103.03920354 108.15336227 106.64572334 C111.56502933 110.03522199 114.96455074 113.43644005 118.35493469 116.84722328 C119.60393928 118.09965507 120.85726107 119.34779782 122.11507607 120.59138107 C123.82604857 122.28431718 125.52102895 123.99177509 127.21270943 125.7039566 C127.97172089 126.44419129 127.97172089 126.44419129 128.74606591 127.19938022 C131.9662391 130.50433625 131.9662391 130.50433625 132.11438942 133.11270714 C130.4988392 136.01555331 128.31347357 138.22026421 125.97220039 140.53659821 C125.44330643 141.07158328 124.91441246 141.60656835 124.3694914 142.15776509 C122.59249938 143.9514279 120.80493822 145.73416656 119.01719856 147.51711273 C117.74215869 148.79949038 116.46774427 150.08249016 115.1939106 151.36606598 C111.72997305 154.85225458 108.25641616 158.32870543 104.78039145 161.80283761 C101.88244953 164.70066005 98.98885754 167.60280714 96.09514982 170.50485677 C89.27153293 177.34771926 82.4397575 184.18236213 75.60313606 191.01222992 C68.54102289 198.06769529 61.49381341 205.13780353 54.45358199 212.21509773 C48.41494187 218.28437607 42.3667374 224.3440059 36.31080896 230.39603394 C32.69103617 234.01373381 29.07518588 237.63515312 25.46866608 241.26606941 C22.07916743 244.67773647 18.67794937 248.07725788 15.26716614 251.46764183 C14.01473435 252.71664642 12.7665916 253.96996821 11.52300835 255.2277832 C9.83007224 256.93875571 8.12261433 258.63373609 6.41043282 260.32541656 C5.67019813 261.08442803 5.67019813 261.08442803 4.9150092 261.85877305 C1.61005317 265.07894624 1.61005317 265.07894624 -0.99831772 265.22709656 C-3.90116389 263.61154633 -6.10587479 261.42618071 -8.42220879 259.08490753 C-8.95719386 258.55601356 -9.49217893 258.02711959 -10.04337567 257.48219854 C-11.83703848 255.70520652 -13.61977714 253.91764536 -15.40272331 252.1299057 C-16.68510096 250.85486583 -17.96810074 249.58045141 -19.25167656 248.30661774 C-22.73786516 244.84268019 -26.21431601 241.3691233 -29.68844819 237.89309859 C-32.58627063 234.99515666 -35.48841772 232.10156468 -38.39046735 229.20785695 C-45.23332984 222.38424007 -52.06797271 215.55246464 -58.8978405 208.7158432 C-65.95330587 201.65373003 -73.02341411 194.60652055 -80.10070831 187.56628913 C-86.16998665 181.527649 -92.22961648 175.47944454 -98.28164452 169.42351609 C-101.89934439 165.8037433 -105.5207637 162.18789301 -109.15167999 158.58137321 C-112.56334705 155.19187457 -115.96286846 151.7906565 -119.35325241 148.37987328 C-120.602257 147.12744149 -121.85557879 145.87929874 -123.11339378 144.63571548 C-124.82436629 142.94277937 -126.51934667 141.23532147 -128.21102715 139.52313995 C-128.97003861 138.78290526 -128.97003861 138.78290526 -129.74438363 138.02771634 C-132.96455682 134.72276031 -132.96455682 134.72276031 -133.11270714 132.11438942 C-131.49715691 129.21154325 -129.31179129 127.00683235 -126.97051811 124.69049835 C-126.44162414 124.15551328 -125.91273018 123.62052821 -125.36780912 123.06933147 C-123.5908171 121.27566866 -121.80325594 119.49293 -120.01551628 117.70998383 C-118.74047641 116.42760618 -117.46606199 115.1446064 -116.19222832 113.86103058 C-112.72829077 110.37484197 -109.25473388 106.89839113 -105.77870917 103.42425895 C-102.88076724 100.52643651 -99.98717526 97.62428941 -97.09346753 94.72223979 C-90.26985065 87.87937729 -83.43807522 81.04473443 -76.60145378 74.21486664 C-69.53934061 67.15940127 -62.49213113 60.08929303 -55.45189971 53.01199883 C-49.41325958 46.94272049 -43.36505512 40.88309065 -37.30912668 34.83106261 C-33.68935388 31.21336275 -30.07350359 27.59194344 -26.4669838 23.96102715 C-23.07748515 20.54936009 -19.67626708 17.14983868 -16.26548386 13.75945473 C-15.01305207 12.51045014 -13.76490932 11.25712835 -12.52132607 9.99931335 C-10.82838995 8.28834085 -9.12093205 6.59336047 -7.40875053 4.90167999 C-6.91526074 4.39567235 -6.42177095 3.88966471 -5.91332692 3.3683235 C-2.60837089 0.14815032 -2.60837089 0.14815032 0 0 Z " fill="#92D050" transform="translate(810.9991588592529,368.8864517211914)"/>
<path d="M0 0 C2.90284617 1.61555022 5.10755707 3.80091585 7.42389107 6.14218903 C7.95887614 6.67108299 8.49386121 7.19997696 9.04505795 7.74489802 C10.83872076 9.52189004 12.62145942 11.3094512 14.40440559 13.09719086 C15.68678324 14.37223073 16.96978302 15.64664515 18.25335884 16.92047882 C21.73954745 20.38441637 25.21599829 23.85797326 28.69013047 27.33399796 C31.58795291 30.23193989 34.49010001 33.12553188 37.39214963 36.0192396 C44.23501213 42.84285649 51.06965499 49.67463192 57.89952278 56.51125336 C64.95498815 63.57336652 72.02509639 70.62057601 79.10239059 77.66080743 C85.17166893 83.69944755 91.23129877 89.74765202 97.2833268 95.80358046 C100.90102667 99.42335325 104.52244598 103.03920354 108.15336227 106.64572334 C111.56502933 110.03522199 114.96455074 113.43644005 118.35493469 116.84722328 C119.60393928 118.09965507 120.85726107 119.34779782 122.11507607 120.59138107 C123.82604857 122.28431718 125.52102895 123.99177509 127.21270943 125.7039566 C127.97172089 126.44419129 127.97172089 126.44419129 128.74606591 127.19938022 C131.9662391 130.50433625 131.9662391 130.50433625 132.11438942 133.11270714 C130.4988392 136.01555331 128.31347357 138.22026421 125.97220039 140.53659821 C125.44330643 141.07158328 124.91441246 141.60656835 124.3694914 142.15776509 C122.59249938 143.9514279 120.80493822 145.73416656 119.01719856 147.51711273 C117.74215869 148.79949038 116.46774427 150.08249016 115.1939106 151.36606598 C111.72997305 154.85225458 108.25641616 158.32870543 104.78039145 161.80283761 C101.88244953 164.70066005 98.98885754 167.60280714 96.09514982 170.50485677 C89.27153293 177.34771926 82.4397575 184.18236213 75.60313606 191.01222992 C68.54102289 198.06769529 61.49381341 205.13780353 54.45358199 212.21509773 C48.41494187 218.28437607 42.3667374 224.3440059 36.31080896 230.39603394 C32.69103617 234.01373381 29.07518588 237.63515312 25.46866608 241.26606941 C22.07916743 244.67773647 18.67794937 248.07725788 15.26716614 251.46764183 C14.01473435 252.71664642 12.7665916 253.96996821 11.52300835 255.2277832 C9.83007224 256.93875571 8.12261433 258.63373609 6.41043282 260.32541656 C5.67019813 261.08442803 5.67019813 261.08442803 4.9150092 261.85877305 C1.61005317 265.07894624 1.61005317 265.07894624 -0.99831772 265.22709656 C-3.90116389 263.61154633 -6.10587479 261.42618071 -8.42220879 259.08490753 C-8.95719386 258.55601356 -9.49217893 258.02711959 -10.04337567 257.48219854 C-11.83703848 255.70520652 -13.61977714 253.91764536 -15.40272331 252.1299057 C-16.68510096 250.85486583 -17.96810074 249.58045141 -19.25167656 248.30661774 C-22.73786516 244.84268019 -26.21431601 241.3691233 -29.68844819 237.89309859 C-32.58627063 234.99515666 -35.48841772 232.10156468 -38.39046735 229.20785695 C-45.23332984 222.38424007 -52.06797271 215.55246464 -58.8978405 208.7158432 C-65.95330587 201.65373003 -73.02341411 194.60652055 -80.10070831 187.56628913 C-86.16998665 181.527649 -92.22961648 175.47944454 -98.28164452 169.42351609 C-101.89934439 165.8037433 -105.5207637 162.18789301 -109.15167999 158.58137321 C-112.56334705 155.19187457 -115.96286846 151.7906565 -119.35325241 148.37987328 C-120.602257 147.12744149 -121.85557879 145.87929874 -123.11339378 144.63571548 C-124.82436629 142.94277937 -126.51934667 141.23532147 -128.21102715 139.52313995 C-128.97003861 138.78290526 -128.97003861 138.78290526 -129.74438363 138.02771634 C-132.96455682 134.72276031 -132.96455682 134.72276031 -133.11270714 132.11438942 C-131.49715691 129.21154325 -129.31179129 127.00683235 -126.97051811 124.69049835 C-126.44162414 124.15551328 -125.91273018 123.62052821 -125.36780912 123.06933147 C-123.5908171 121.27566866 -121.80325594 119.49293 -120.01551628 117.70998383 C-118.74047641 116.42760618 -117.46606199 115.1446064 -116.19222832 113.86103058 C-112.72829077 110.37484197 -109.25473388 106.89839113 -105.77870917 103.42425895 C-102.88076724 100.52643651 -99.98717526 97.62428941 -97.09346753 94.72223979 C-90.26985065 87.87937729 -83.43807522 81.04473443 -76.60145378 74.21486664 C-69.53934061 67.15940127 -62.49213113 60.08929303 -55.45189971 53.01199883 C-49.41325958 46.94272049 -43.36505512 40.88309065 -37.30912668 34.83106261 C-33.68935388 31.21336275 -30.07350359 27.59194344 -26.4669838 23.96102715 C-23.07748515 20.54936009 -19.67626708 17.14983868 -16.26548386 13.75945473 C-15.01305207 12.51045014 -13.76490932 11.25712835 -12.52132607 9.99931335 C-10.82838995 8.28834085 -9.12093205 6.59336047 -7.40875053 4.90167999 C-6.91526074 4.39567235 -6.42177095 3.88966471 -5.91332692 3.3683235 C-2.60837089 0.14815032 -2.60837089 0.14815032 0 0 Z " fill="#92D050" transform="translate(503.99915885925293,368.8864517211914)"/>
<path d="M0 0 C2.90284617 1.61555022 5.10755707 3.80091585 7.42389107 6.14218903 C7.95887614 6.67108299 8.49386121 7.19997696 9.04505795 7.74489802 C10.83872076 9.52189004 12.62145942 11.3094512 14.40440559 13.09719086 C15.68678324 14.37223073 16.96978302 15.64664515 18.25335884 16.92047882 C21.73954745 20.38441637 25.21599829 23.85797326 28.69013047 27.33399796 C31.58795291 30.23193989 34.49010001 33.12553188 37.39214963 36.0192396 C44.23501213 42.84285649 51.06965499 49.67463192 57.89952278 56.51125336 C64.95498815 63.57336652 72.02509639 70.62057601 79.10239059 77.66080743 C85.17166893 83.69944755 91.23129877 89.74765202 97.2833268 95.80358046 C100.90102667 99.42335325 104.52244598 103.03920354 108.15336227 106.64572334 C111.56502933 110.03522199 114.96455074 113.43644005 118.35493469 116.84722328 C119.60393928 118.09965507 120.85726107 119.34779782 122.11507607 120.59138107 C123.82604857 122.28431718 125.52102895 123.99177509 127.21270943 125.7039566 C127.97172089 126.44419129 127.97172089 126.44419129 128.74606591 127.19938022 C131.9662391 130.50433625 131.9662391 130.50433625 132.11438942 133.11270714 C130.4988392 136.01555331 128.31347357 138.22026421 125.97220039 140.53659821 C125.44330643 141.07158328 124.91441246 141.60656835 124.3694914 142.15776509 C122.59249938 143.9514279 120.80493822 145.73416656 119.01719856 147.51711273 C117.74215869 148.79949038 116.46774427 150.08249016 115.1939106 151.36606598 C111.72997305 154.85225458 108.25641616 158.32870543 104.78039145 161.80283761 C101.88244953 164.70066005 98.98885754 167.60280714 96.09514982 170.50485677 C89.27153293 177.34771926 82.4397575 184.18236213 75.60313606 191.01222992 C68.54102289 198.06769529 61.49381341 205.13780353 54.45358199 212.21509773 C48.41494187 218.28437607 42.3667374 224.3440059 36.31080896 230.39603394 C32.69103617 234.01373381 29.07518588 237.63515312 25.46866608 241.26606941 C22.07916743 244.67773647 18.67794937 248.07725788 15.26716614 251.46764183 C14.01473435 252.71664642 12.7665916 253.96996821 11.52300835 255.2277832 C9.83007224 256.93875571 8.12261433 258.63373609 6.41043282 260.32541656 C5.67019813 261.08442803 5.67019813 261.08442803 4.9150092 261.85877305 C1.61005317 265.07894624 1.61005317 265.07894624 -0.99831772 265.22709656 C-3.90116389 263.61154633 -6.10587479 261.42618071 -8.42220879 259.08490753 C-8.95719386 258.55601356 -9.49217893 258.02711959 -10.04337567 257.48219854 C-11.83703848 255.70520652 -13.61977714 253.91764536 -15.40272331 252.1299057 C-16.68510096 250.85486583 -17.96810074 249.58045141 -19.25167656 248.30661774 C-22.73786516 244.84268019 -26.21431601 241.3691233 -29.68844819 237.89309859 C-32.58627063 234.99515666 -35.48841772 232.10156468 -38.39046735 229.20785695 C-45.23332984 222.38424007 -52.06797271 215.55246464 -58.8978405 208.7158432 C-65.95330587 201.65373003 -73.02341411 194.60652055 -80.10070831 187.56628913 C-86.16998665 181.527649 -92.22961648 175.47944454 -98.28164452 169.42351609 C-101.89934439 165.8037433 -105.5207637 162.18789301 -109.15167999 158.58137321 C-112.56334705 155.19187457 -115.96286846 151.7906565 -119.35325241 148.37987328 C-120.602257 147.12744149 -121.85557879 145.87929874 -123.11339378 144.63571548 C-124.82436629 142.94277937 -126.51934667 141.23532147 -128.21102715 139.52313995 C-128.97003861 138.78290526 -128.97003861 138.78290526 -129.74438363 138.02771634 C-132.96455682 134.72276031 -132.96455682 134.72276031 -133.11270714 132.11438942 C-131.49715691 129.21154325 -129.31179129 127.00683235 -126.97051811 124.69049835 C-126.44162414 124.15551328 -125.91273018 123.62052821 -125.36780912 123.06933147 C-123.5908171 121.27566866 -121.80325594 119.49293 -120.01551628 117.70998383 C-118.74047641 116.42760618 -117.46606199 115.1446064 -116.19222832 113.86103058 C-112.72829077 110.37484197 -109.25473388 106.89839113 -105.77870917 103.42425895 C-102.88076724 100.52643651 -99.98717526 97.62428941 -97.09346753 94.72223979 C-90.26985065 87.87937729 -83.43807522 81.04473443 -76.60145378 74.21486664 C-69.53934061 67.15940127 -62.49213113 60.08929303 -55.45189971 53.01199883 C-49.41325958 46.94272049 -43.36505512 40.88309065 -37.30912668 34.83106261 C-33.68935388 31.21336275 -30.07350359 27.59194344 -26.4669838 23.96102715 C-23.07748515 20.54936009 -19.67626708 17.14983868 -16.26548386 13.75945473 C-15.01305207 12.51045014 -13.76490932 11.25712835 -12.52132607 9.99931335 C-10.82838995 8.28834085 -9.12093205 6.59336047 -7.40875053 4.90167999 C-6.91526074 4.39567235 -6.42177095 3.88966471 -5.91332692 3.3683235 C-2.60837089 0.14815032 -2.60837089 0.14815032 0 0 Z " fill="#00B0F0" transform="translate(196.99915885925293,368.8864517211914)"/>
<path d="M0 0 C2.90284617 1.61555022 5.10755707 3.80091585 7.42389107 6.14218903 C7.95887614 6.67108299 8.49386121 7.19997696 9.04505795 7.74489802 C10.83872076 9.52189004 12.62145942 11.3094512 14.40440559 13.09719086 C15.68678324 14.37223073 16.96978302 15.64664515 18.25335884 16.92047882 C21.73954745 20.38441637 25.21599829 23.85797326 28.69013047 27.33399796 C31.58795291 30.23193989 34.49010001 33.12553188 37.39214963 36.0192396 C44.23501213 42.84285649 51.06965499 49.67463192 57.89952278 56.51125336 C64.95498815 63.57336652 72.02509639 70.62057601 79.10239059 77.66080743 C85.17166893 83.69944755 91.23129877 89.74765202 97.2833268 95.80358046 C100.90102667 99.42335325 104.52244598 103.03920354 108.15336227 106.64572334 C111.56502933 110.03522199 114.96455074 113.43644005 118.35493469 116.84722328 C119.60393928 118.09965507 120.85726107 119.34779782 122.11507607 120.59138107 C123.82604857 122.28431718 125.52102895 123.99177509 127.21270943 125.7039566 C127.97172089 126.44419129 127.97172089 126.44419129 128.74606591 127.19938022 C131.9662391 130.50433625 131.9662391 130.50433625 132.11438942 133.11270714 C130.4988392 136.01555331 128.31347357 138.22026421 125.97220039 140.53659821 C125.44330643 141.07158328 124.91441246 141.60656835 124.3694914 142.15776509 C122.59249938 143.9514279 120.80493822 145.73416656 119.01719856 147.51711273 C117.74215869 148.79949038 116.46774427 150.08249016 115.1939106 151.36606598 C111.72997305 154.85225458 108.25641616 158.32870543 104.78039145 161.80283761 C101.88244953 164.70066005 98.98885754 167.60280714 96.09514982 170.50485677 C89.27153293 177.34771926 82.4397575 184.18236213 75.60313606 191.01222992 C68.54102289 198.06769529 61.49381341 205.13780353 54.45358199 212.21509773 C48.41494187 218.28437607 42.3667374 224.3440059 36.31080896 230.39603394 C32.69103617 234.01373381 29.07518588 237.63515312 25.46866608 241.26606941 C22.07916743 244.67773647 18.67794937 248.07725788 15.26716614 251.46764183 C14.01473435 252.71664642 12.7665916 253.96996821 11.52300835 255.2277832 C9.83007224 256.93875571 8.12261433 258.63373609 6.41043282 260.32541656 C5.67019813 261.08442803 5.67019813 261.08442803 4.9150092 261.85877305 C1.61005317 265.07894624 1.61005317 265.07894624 -0.99831772 265.22709656 C-3.90116389 263.61154633 -6.10587479 261.42618071 -8.42220879 259.08490753 C-8.95719386 258.55601356 -9.49217893 258.02711959 -10.04337567 257.48219854 C-11.83703848 255.70520652 -13.61977714 253.91764536 -15.40272331 252.1299057 C-16.68510096 250.85486583 -17.96810074 249.58045141 -19.25167656 248.30661774 C-22.73786516 244.84268019 -26.21431601 241.3691233 -29.68844819 237.89309859 C-32.58627063 234.99515666 -35.48841772 232.10156468 -38.39046735 229.20785695 C-45.23332984 222.38424007 -52.06797271 215.55246464 -58.8978405 208.7158432 C-65.95330587 201.65373003 -73.02341411 194.60652055 -80.10070831 187.56628913 C-86.16998665 181.527649 -92.22961648 175.47944454 -98.28164452 169.42351609 C-101.89934439 165.8037433 -105.5207637 162.18789301 -109.15167999 158.58137321 C-112.56334705 155.19187457 -115.96286846 151.7906565 -119.35325241 148.37987328 C-120.602257 147.12744149 -121.85557879 145.87929874 -123.11339378 144.63571548 C-124.82436629 142.94277937 -126.51934667 141.23532147 -128.21102715 139.52313995 C-128.97003861 138.78290526 -128.97003861 138.78290526 -129.74438363 138.02771634 C-132.96455682 134.72276031 -132.96455682 134.72276031 -133.11270714 132.11438942 C-131.49715691 129.21154325 -129.31179129 127.00683235 -126.97051811 124.69049835 C-126.44162414 124.15551328 -125.91273018 123.62052821 -125.36780912 123.06933147 C-123.5908171 121.27566866 -121.80325594 119.49293 -120.01551628 117.70998383 C-118.74047641 116.42760618 -117.46606199 115.1446064 -116.19222832 113.86103058 C-112.72829077 110.37484197 -109.25473388 106.89839113 -105.77870917 103.42425895 C-102.88076724 100.52643651 -99.98717526 97.62428941 -97.09346753 94.72223979 C-90.26985065 87.87937729 -83.43807522 81.04473443 -76.60145378 74.21486664 C-69.53934061 67.15940127 -62.49213113 60.08929303 -55.45189971 53.01199883 C-49.41325958 46.94272049 -43.36505512 40.88309065 -37.30912668 34.83106261 C-33.68935388 31.21336275 -30.07350359 27.59194344 -26.4669838 23.96102715 C-23.07748515 20.54936009 -19.67626708 17.14983868 -16.26548386 13.75945473 C-15.01305207 12.51045014 -13.76490932 11.25712835 -12.52132607 9.99931335 C-10.82838995 8.28834085 -9.12093205 6.59336047 -7.40875053 4.90167999 C-6.91526074 4.39567235 -6.42177095 3.88966471 -5.91332692 3.3683235 C-2.60837089 0.14815032 -2.60837089 0.14815032 0 0 Z " fill="#00B0F0" transform="translate(657.9991588592529,215.8864517211914)"/>
<path d="M0 0 C2.90284617 1.61555022 5.10755707 3.80091585 7.42389107 6.14218903 C7.95887614 6.67108299 8.49386121 7.19997696 9.04505795 7.74489802 C10.83872076 9.52189004 12.62145942 11.3094512 14.40440559 13.09719086 C15.68678324 14.37223073 16.96978302 15.64664515 18.25335884 16.92047882 C21.73954745 20.38441637 25.21599829 23.85797326 28.69013047 27.33399796 C31.58795291 30.23193989 34.49010001 33.12553188 37.39214963 36.0192396 C44.23501213 42.84285649 51.06965499 49.67463192 57.89952278 56.51125336 C64.95498815 63.57336652 72.02509639 70.62057601 79.10239059 77.66080743 C85.17166893 83.69944755 91.23129877 89.74765202 97.2833268 95.80358046 C100.90102667 99.42335325 104.52244598 103.03920354 108.15336227 106.64572334 C111.56502933 110.03522199 114.96455074 113.43644005 118.35493469 116.84722328 C119.60393928 118.09965507 120.85726107 119.34779782 122.11507607 120.59138107 C123.82604857 122.28431718 125.52102895 123.99177509 127.21270943 125.7039566 C127.97172089 126.44419129 127.97172089 126.44419129 128.74606591 127.19938022 C131.9662391 130.50433625 131.9662391 130.50433625 132.11438942 133.11270714 C130.4988392 136.01555331 128.31347357 138.22026421 125.97220039 140.53659821 C125.44330643 141.07158328 124.91441246 141.60656835 124.3694914 142.15776509 C122.59249938 143.9514279 120.80493822 145.73416656 119.01719856 147.51711273 C117.74215869 148.79949038 116.46774427 150.08249016 115.1939106 151.36606598 C111.72997305 154.85225458 108.25641616 158.32870543 104.78039145 161.80283761 C101.88244953 164.70066005 98.98885754 167.60280714 96.09514982 170.50485677 C89.27153293 177.34771926 82.4397575 184.18236213 75.60313606 191.01222992 C68.54102289 198.06769529 61.49381341 205.13780353 54.45358199 212.21509773 C48.41494187 218.28437607 42.3667374 224.3440059 36.31080896 230.39603394 C32.69103617 234.01373381 29.07518588 237.63515312 25.46866608 241.26606941 C22.07916743 244.67773647 18.67794937 248.07725788 15.26716614 251.46764183 C14.01473435 252.71664642 12.7665916 253.96996821 11.52300835 255.2277832 C9.83007224 256.93875571 8.12261433 258.63373609 6.41043282 260.32541656 C5.67019813 261.08442803 5.67019813 261.08442803 4.9150092 261.85877305 C1.61005317 265.07894624 1.61005317 265.07894624 -0.99831772 265.22709656 C-3.90116389 263.61154633 -6.10587479 261.42618071 -8.42220879 259.08490753 C-8.95719386 258.55601356 -9.49217893 258.02711959 -10.04337567 257.48219854 C-11.83703848 255.70520652 -13.61977714 253.91764536 -15.40272331 252.1299057 C-16.68510096 250.85486583 -17.96810074 249.58045141 -19.25167656 248.30661774 C-22.73786516 244.84268019 -26.21431601 241.3691233 -29.68844819 237.89309859 C-32.58627063 234.99515666 -35.48841772 232.10156468 -38.39046735 229.20785695 C-45.23332984 222.38424007 -52.06797271 215.55246464 -58.8978405 208.7158432 C-65.95330587 201.65373003 -73.02341411 194.60652055 -80.10070831 187.56628913 C-86.16998665 181.527649 -92.22961648 175.47944454 -98.28164452 169.42351609 C-101.89934439 165.8037433 -105.5207637 162.18789301 -109.15167999 158.58137321 C-112.56334705 155.19187457 -115.96286846 151.7906565 -119.35325241 148.37987328 C-120.602257 147.12744149 -121.85557879 145.87929874 -123.11339378 144.63571548 C-124.82436629 142.94277937 -126.51934667 141.23532147 -128.21102715 139.52313995 C-128.97003861 138.78290526 -128.97003861 138.78290526 -129.74438363 138.02771634 C-132.96455682 134.72276031 -132.96455682 134.72276031 -133.11270714 132.11438942 C-131.49715691 129.21154325 -129.31179129 127.00683235 -126.97051811 124.69049835 C-126.44162414 124.15551328 -125.91273018 123.62052821 -125.36780912 123.06933147 C-123.5908171 121.27566866 -121.80325594 119.49293 -120.01551628 117.70998383 C-118.74047641 116.42760618 -117.46606199 115.1446064 -116.19222832 113.86103058 C-112.72829077 110.37484197 -109.25473388 106.89839113 -105.77870917 103.42425895 C-102.88076724 100.52643651 -99.98717526 97.62428941 -97.09346753 94.72223979 C-90.26985065 87.87937729 -83.43807522 81.04473443 -76.60145378 74.21486664 C-69.53934061 67.15940127 -62.49213113 60.08929303 -55.45189971 53.01199883 C-49.41325958 46.94272049 -43.36505512 40.88309065 -37.30912668 34.83106261 C-33.68935388 31.21336275 -30.07350359 27.59194344 -26.4669838 23.96102715 C-23.07748515 20.54936009 -19.67626708 17.14983868 -16.26548386 13.75945473 C-15.01305207 12.51045014 -13.76490932 11.25712835 -12.52132607 9.99931335 C-10.82838995 8.28834085 -9.12093205 6.59336047 -7.40875053 4.90167999 C-6.91526074 4.39567235 -6.42177095 3.88966471 -5.91332692 3.3683235 C-2.60837089 0.14815032 -2.60837089 0.14815032 0 0 Z " fill="#92D050" transform="translate(350.99915885925293,215.8864517211914)"/>
<path d="M0 0 C2.90284617 1.61555022 5.10755707 3.80091585 7.42389107 6.14218903 C7.95887614 6.67108299 8.49386121 7.19997696 9.04505795 7.74489802 C10.83872076 9.52189004 12.62145942 11.3094512 14.40440559 13.09719086 C15.68678324 14.37223073 16.96978302 15.64664515 18.25335884 16.92047882 C21.73954745 20.38441637 25.21599829 23.85797326 28.69013047 27.33399796 C31.58795291 30.23193989 34.49010001 33.12553188 37.39214963 36.0192396 C44.23501213 42.84285649 51.06965499 49.67463192 57.89952278 56.51125336 C64.95498815 63.57336652 72.02509639 70.62057601 79.10239059 77.66080743 C85.17166893 83.69944755 91.23129877 89.74765202 97.2833268 95.80358046 C100.90102667 99.42335325 104.52244598 103.03920354 108.15336227 106.64572334 C111.56502933 110.03522199 114.96455074 113.43644005 118.35493469 116.84722328 C119.60393928 118.09965507 120.85726107 119.34779782 122.11507607 120.59138107 C123.82604857 122.28431718 125.52102895 123.99177509 127.21270943 125.7039566 C127.97172089 126.44419129 127.97172089 126.44419129 128.74606591 127.19938022 C131.9662391 130.50433625 131.9662391 130.50433625 132.11438942 133.11270714 C130.4988392 136.01555331 128.31347357 138.22026421 125.97220039 140.53659821 C125.44330643 141.07158328 124.91441246 141.60656835 124.3694914 142.15776509 C122.59249938 143.9514279 120.80493822 145.73416656 119.01719856 147.51711273 C117.74215869 148.79949038 116.46774427 150.08249016 115.1939106 151.36606598 C111.72997305 154.85225458 108.25641616 158.32870543 104.78039145 161.80283761 C101.88244953 164.70066005 98.98885754 167.60280714 96.09514982 170.50485677 C89.27153293 177.34771926 82.4397575 184.18236213 75.60313606 191.01222992 C68.54102289 198.06769529 61.49381341 205.13780353 54.45358199 212.21509773 C48.41494187 218.28437607 42.3667374 224.3440059 36.31080896 230.39603394 C32.69103617 234.01373381 29.07518588 237.63515312 25.46866608 241.26606941 C22.07916743 244.67773647 18.67794937 248.07725788 15.26716614 251.46764183 C14.01473435 252.71664642 12.7665916 253.96996821 11.52300835 255.2277832 C9.83007224 256.93875571 8.12261433 258.63373609 6.41043282 260.32541656 C5.67019813 261.08442803 5.67019813 261.08442803 4.9150092 261.85877305 C1.61005317 265.07894624 1.61005317 265.07894624 -0.99831772 265.22709656 C-3.90116389 263.61154633 -6.10587479 261.42618071 -8.42220879 259.08490753 C-8.95719386 258.55601356 -9.49217893 258.02711959 -10.04337567 257.48219854 C-11.83703848 255.70520652 -13.61977714 253.91764536 -15.40272331 252.1299057 C-16.68510096 250.85486583 -17.96810074 249.58045141 -19.25167656 248.30661774 C-22.73786516 244.84268019 -26.21431601 241.3691233 -29.68844819 237.89309859 C-32.58627063 234.99515666 -35.48841772 232.10156468 -38.39046735 229.20785695 C-45.23332984 222.38424007 -52.06797271 215.55246464 -58.8978405 208.7158432 C-65.95330587 201.65373003 -73.02341411 194.60652055 -80.10070831 187.56628913 C-86.16998665 181.527649 -92.22961648 175.47944454 -98.28164452 169.42351609 C-101.89934439 165.8037433 -105.5207637 162.18789301 -109.15167999 158.58137321 C-112.56334705 155.19187457 -115.96286846 151.7906565 -119.35325241 148.37987328 C-120.602257 147.12744149 -121.85557879 145.87929874 -123.11339378 144.63571548 C-124.82436629 142.94277937 -126.51934667 141.23532147 -128.21102715 139.52313995 C-128.97003861 138.78290526 -128.97003861 138.78290526 -129.74438363 138.02771634 C-132.96455682 134.72276031 -132.96455682 134.72276031 -133.11270714 132.11438942 C-131.49715691 129.21154325 -129.31179129 127.00683235 -126.97051811 124.69049835 C-126.44162414 124.15551328 -125.91273018 123.62052821 -125.36780912 123.06933147 C-123.5908171 121.27566866 -121.80325594 119.49293 -120.01551628 117.70998383 C-118.74047641 116.42760618 -117.46606199 115.1446064 -116.19222832 113.86103058 C-112.72829077 110.37484197 -109.25473388 106.89839113 -105.77870917 103.42425895 C-102.88076724 100.52643651 -99.98717526 97.62428941 -97.09346753 94.72223979 C-90.26985065 87.87937729 -83.43807522 81.04473443 -76.60145378 74.21486664 C-69.53934061 67.15940127 -62.49213113 60.08929303 -55.45189971 53.01199883 C-49.41325958 46.94272049 -43.36505512 40.88309065 -37.30912668 34.83106261 C-33.68935388 31.21336275 -30.07350359 27.59194344 -26.4669838 23.96102715 C-23.07748515 20.54936009 -19.67626708 17.14983868 -16.26548386 13.75945473 C-15.01305207 12.51045014 -13.76490932 11.25712835 -12.52132607 9.99931335 C-10.82838995 8.28834085 -9.12093205 6.59336047 -7.40875053 4.90167999 C-6.91526074 4.39567235 -6.42177095 3.88966471 -5.91332692 3.3683235 C-2.60837089 0.14815032 -2.60837089 0.14815032 0 0 Z " fill="#00B0F0" transform="translate(503.99915885925293,62.886451721191406)"/>
</svg>
