<?xml version="1.0" encoding="UTF-8"?>
<svg xmlns="http://www.w3.org/2000/svg" xmlns:xlink="http://www.w3.org/1999/xlink" width="28px" height="28px" viewBox="0 0 28 28" version="1.1">
<g id="surface1">
<path style=" stroke:none;fill-rule:evenodd;fill:rgb(67.45098%,67.45098%,67.45098%);fill-opacity:1;" d="M 7.972656 7.890625 C 6.960938 8.902344 6.132812 9.742188 6.132812 9.757812 C 6.132812 9.773438 6.960938 10.613281 7.972656 11.628906 L 9.8125 13.46875 L 11.65625 11.625 C 12.667969 10.613281 13.496094 9.773438 13.496094 9.757812 C 13.496094 9.742188 12.667969 8.902344 11.65625 7.890625 L 9.8125 6.046875 L 7.972656 7.890625 M 12.257812 12.171875 C 11.246094 13.1875 10.414062 14.027344 10.414062 14.042969 C 10.414062 14.058594 11.246094 14.898438 12.257812 15.910156 L 14.097656 17.753906 L 15.9375 15.910156 C 16.953125 14.898438 17.78125 14.058594 17.78125 14.042969 C 17.78125 14.027344 16.953125 13.183594 15.9375 12.171875 L 14.097656 10.332031 L 12.257812 12.171875 M 20.851562 12.171875 C 19.839844 13.1875 19.011719 14.027344 19.011719 14.042969 C 19.011719 14.058594 19.839844 14.898438 20.851562 15.910156 L 22.695312 17.753906 L 24.535156 15.910156 C 25.546875 14.898438 26.375 14.058594 26.375 14.042969 C 26.375 14.027344 25.546875 13.183594 24.535156 12.171875 L 22.695312 10.332031 L 20.851562 12.171875 M 12.257812 20.742188 C 11.246094 21.753906 10.414062 22.59375 10.414062 22.609375 C 10.414062 22.625 11.246094 23.464844 12.257812 24.480469 L 14.097656 26.320312 L 15.9375 24.480469 C 16.953125 23.464844 17.78125 22.625 17.78125 22.609375 C 17.78125 22.59375 16.953125 21.753906 15.9375 20.742188 L 14.097656 18.898438 L 12.257812 20.742188 "/>
<path style=" stroke:none;fill-rule:evenodd;fill:rgb(51.764706%,51.764706%,51.764706%);fill-opacity:1;" d="M 12.234375 3.601562 C 11.21875 4.613281 10.386719 5.453125 10.386719 5.472656 C 10.386719 5.507812 14.058594 9.183594 14.097656 9.183594 C 14.136719 9.183594 17.808594 5.511719 17.808594 5.472656 C 17.808594 5.441406 14.136719 1.765625 14.101562 1.765625 C 14.089844 1.765625 13.25 2.589844 12.234375 3.601562 M 16.546875 7.886719 C 15.53125 8.898438 14.699219 9.738281 14.699219 9.753906 C 14.699219 9.792969 18.371094 13.46875 18.410156 13.46875 C 18.445312 13.46875 22.121094 9.792969 22.121094 9.757812 C 22.121094 9.726562 18.449219 6.046875 18.414062 6.046875 C 18.402344 6.046875 17.5625 6.875 16.546875 7.886719 M 3.640625 12.171875 C 2.625 13.179688 1.792969 14.023438 1.792969 14.039062 C 1.792969 14.078125 5.464844 17.753906 5.503906 17.753906 C 5.539062 17.753906 9.210938 14.078125 9.210938 14.042969 C 9.210938 14.007812 5.539062 10.332031 5.507812 10.332031 C 5.496094 10.332031 4.65625 11.160156 3.640625 12.171875 M 7.949219 16.453125 C 6.933594 17.464844 6.105469 18.304688 6.105469 18.324219 C 6.105469 18.363281 9.777344 22.035156 9.8125 22.035156 C 9.851562 22.035156 13.523438 18.363281 13.523438 18.324219 C 13.523438 18.292969 9.851562 14.617188 9.820312 14.617188 C 9.808594 14.617188 8.964844 15.441406 7.949219 16.453125 M 16.546875 16.453125 C 15.53125 17.464844 14.699219 18.304688 14.699219 18.324219 C 14.699219 18.363281 18.371094 22.035156 18.410156 22.035156 C 18.445312 22.035156 22.121094 18.363281 22.121094 18.324219 C 22.121094 18.292969 18.449219 14.617188 18.414062 14.617188 C 18.402344 14.617188 17.5625 15.441406 16.546875 16.453125 "/>
<path style=" stroke:none;fill-rule:evenodd;fill:rgb(70.588235%,70.588235%,70.588235%);fill-opacity:1;" d="M 7.945312 7.890625 C 6.933594 8.902344 6.105469 9.742188 6.105469 9.757812 C 6.105469 9.773438 6.9375 10.617188 7.960938 11.632812 L 9.8125 13.480469 L 7.972656 11.632812 C 6.960938 10.617188 6.132812 9.773438 6.132812 9.757812 C 6.132812 9.742188 6.960938 8.902344 7.972656 7.890625 C 8.984375 6.875 9.808594 6.046875 9.800781 6.046875 C 9.792969 6.046875 8.957031 6.875 7.945312 7.890625 M 11.65625 7.882812 C 12.667969 8.898438 13.496094 9.742188 13.496094 9.757812 C 13.496094 9.773438 12.667969 10.617188 11.65625 11.632812 L 9.8125 13.480469 L 11.667969 11.632812 C 12.6875 10.617188 13.523438 9.773438 13.523438 9.757812 C 13.523438 9.742188 12.6875 8.898438 11.667969 7.882812 L 9.8125 6.035156 L 11.65625 7.882812 M 12.230469 12.171875 C 11.214844 13.1875 10.386719 14.027344 10.386719 14.042969 C 10.386719 14.058594 11.222656 14.902344 12.242188 15.917969 L 14.097656 17.765625 L 12.257812 15.917969 C 11.246094 14.902344 10.414062 14.058594 10.414062 14.042969 C 10.414062 14.027344 11.246094 13.1875 12.257812 12.171875 C 13.269531 11.160156 14.089844 10.332031 14.082031 10.332031 C 14.074219 10.332031 13.242188 11.160156 12.230469 12.171875 M 15.9375 12.167969 C 16.953125 13.183594 17.78125 14.027344 17.78125 14.042969 C 17.78125 14.058594 16.953125 14.902344 15.9375 15.917969 L 14.097656 17.765625 L 15.953125 15.917969 C 16.972656 14.902344 17.808594 14.058594 17.808594 14.042969 C 17.808594 14.027344 16.972656 13.183594 15.953125 12.164062 L 14.097656 10.316406 L 15.9375 12.167969 M 20.824219 12.171875 C 19.8125 13.1875 18.984375 14.027344 18.984375 14.042969 C 18.984375 14.058594 19.820312 14.902344 20.839844 15.917969 L 22.695312 17.765625 L 20.851562 15.917969 C 19.839844 14.902344 19.011719 14.058594 19.011719 14.042969 C 19.011719 14.027344 19.839844 13.1875 20.851562 12.171875 C 21.867188 11.160156 22.6875 10.332031 22.679688 10.332031 C 22.671875 10.332031 21.835938 11.160156 20.824219 12.171875 M 24.535156 12.167969 C 25.546875 13.183594 26.375 14.027344 26.375 14.042969 C 26.375 14.058594 25.546875 14.902344 24.535156 15.917969 L 22.695312 17.765625 L 24.550781 15.917969 C 25.570312 14.902344 26.402344 14.058594 26.402344 14.042969 C 26.402344 14.027344 25.570312 13.183594 24.550781 12.164062 L 22.695312 10.316406 L 24.535156 12.167969 M 12.230469 20.742188 C 11.214844 21.753906 10.386719 22.59375 10.386719 22.609375 C 10.386719 22.625 11.222656 23.46875 12.242188 24.484375 L 14.097656 26.335938 L 12.257812 24.484375 C 11.246094 23.46875 10.414062 22.625 10.414062 22.609375 C 10.414062 22.59375 11.246094 21.753906 12.257812 20.742188 C 13.269531 19.730469 14.089844 18.898438 14.082031 18.898438 C 14.074219 18.898438 13.242188 19.730469 12.230469 20.742188 M 15.9375 20.734375 C 16.953125 21.75 17.78125 22.59375 17.78125 22.609375 C 17.78125 22.625 16.953125 23.46875 15.9375 24.484375 L 14.097656 26.335938 L 15.953125 24.484375 C 16.972656 23.46875 17.808594 22.625 17.808594 22.609375 C 17.808594 22.59375 16.972656 21.75 15.953125 20.734375 L 14.097656 18.886719 L 15.9375 20.734375 "/>
<path style=" stroke:none;fill-rule:evenodd;fill:rgb(56.470588%,62.745098%,61.176471%);fill-opacity:1;" d="M 13.859375 1.972656 C 13.746094 2.089844 13.65625 2.183594 13.664062 2.183594 C 13.671875 2.183594 13.773438 2.089844 13.886719 1.972656 C 14.003906 1.859375 14.089844 1.765625 14.082031 1.765625 C 14.074219 1.765625 13.976562 1.859375 13.859375 1.972656 M 18.171875 6.257812 C 18.058594 6.375 17.96875 6.46875 17.976562 6.46875 C 17.984375 6.46875 18.085938 6.375 18.199219 6.257812 C 18.316406 6.140625 18.402344 6.046875 18.394531 6.046875 C 18.386719 6.046875 18.285156 6.140625 18.171875 6.257812 M 5.265625 10.542969 C 5.148438 10.65625 5.0625 10.753906 5.070312 10.753906 C 5.078125 10.753906 5.175781 10.65625 5.292969 10.542969 C 5.40625 10.425781 5.496094 10.332031 5.488281 10.332031 C 5.480469 10.332031 5.378906 10.425781 5.265625 10.542969 M 9.574219 14.824219 C 9.460938 14.941406 9.375 15.035156 9.382812 15.035156 C 9.390625 15.035156 9.488281 14.941406 9.605469 14.824219 C 9.71875 14.710938 9.804688 14.617188 9.796875 14.617188 C 9.789062 14.617188 9.691406 14.710938 9.574219 14.824219 M 18.171875 14.824219 C 18.058594 14.941406 17.96875 15.035156 17.976562 15.035156 C 17.984375 15.035156 18.085938 14.941406 18.199219 14.824219 C 18.316406 14.710938 18.402344 14.617188 18.394531 14.617188 C 18.386719 14.617188 18.285156 14.710938 18.171875 14.824219 "/>
</g>
</svg>
