<svg id="svg" version="1.1" xmlns="http://www.w3.org/2000/svg" xmlns:xlink="http://www.w3.org/1999/xlink" width="400" height="400" viewBox="0, 0, 400,400"><g id="svgg"><path id="path0" d="M113.899 112.701 C 99.434 127.167,87.600 139.182,87.600 139.402 C 87.600 139.622,99.436 151.637,113.901 166.101 L 140.202 192.400 166.501 166.099 C 180.966 151.633,192.800 139.618,192.800 139.398 C 192.800 139.178,180.964 127.163,166.499 112.699 L 140.198 86.400 113.899 112.701 M175.099 173.901 C 160.634 188.367,148.800 200.382,148.800 200.602 C 148.800 200.822,160.636 212.837,175.101 227.301 L 201.402 253.600 227.701 227.299 C 242.166 212.833,254.000 200.818,254.000 200.598 C 254.000 200.378,242.164 188.363,227.699 173.899 L 201.398 147.600 175.099 173.901 M297.899 173.901 C 283.434 188.367,271.600 200.382,271.600 200.602 C 271.600 200.822,283.436 212.837,297.901 227.301 L 324.202 253.600 350.501 227.299 C 364.966 212.833,376.800 200.818,376.800 200.598 C 376.800 200.378,364.964 188.363,350.499 173.899 L 324.198 147.600 297.899 173.901 M175.099 296.301 C 160.634 310.767,148.800 322.782,148.800 323.002 C 148.800 323.222,160.636 335.237,175.101 349.701 L 201.402 376.000 227.701 349.699 C 242.166 335.233,254.000 323.218,254.000 322.998 C 254.000 322.778,242.164 310.763,227.699 296.299 L 201.398 270.000 175.099 296.301 " stroke="none" fill="#acacac" fill-rule="evenodd"></path><path id="path1" d="M174.784 51.462 C 160.273 65.905,148.400 77.920,148.400 78.160 C 148.400 78.709,200.851 131.200,201.400 131.200 C 201.926 131.200,254.400 78.721,254.400 78.195 C 254.400 77.729,201.942 25.200,201.477 25.200 C 201.307 25.200,189.295 37.018,174.784 51.462 M236.384 112.662 C 221.873 127.105,210.000 139.120,210.000 139.360 C 210.000 139.909,262.451 192.400,263.000 192.400 C 263.526 192.400,316.000 139.921,316.000 139.395 C 316.000 138.929,263.542 86.400,263.077 86.400 C 262.907 86.400,250.895 98.218,236.384 112.662 M51.984 173.862 C 37.473 188.305,25.600 200.320,25.600 200.560 C 25.600 201.109,78.051 253.600,78.600 253.600 C 79.126 253.600,131.600 201.121,131.600 200.595 C 131.600 200.129,79.142 147.600,78.677 147.600 C 78.507 147.600,66.495 159.418,51.984 173.862 M113.584 235.062 C 99.073 249.505,87.200 261.520,87.200 261.760 C 87.200 262.309,139.651 314.800,140.200 314.800 C 140.726 314.800,193.200 262.321,193.200 261.795 C 193.200 261.329,140.742 208.800,140.277 208.800 C 140.107 208.800,128.095 220.618,113.584 235.062 M236.384 235.062 C 221.873 249.505,210.000 261.520,210.000 261.760 C 210.000 262.309,262.451 314.800,263.000 314.800 C 263.526 314.800,316.000 262.321,316.000 261.795 C 316.000 261.329,263.542 208.800,263.077 208.800 C 262.907 208.800,250.895 220.618,236.384 235.062 " stroke="none" fill="#848484" fill-rule="evenodd"></path><path id="path2" d="M113.499 112.701 C 99.034 127.167,87.200 139.182,87.200 139.402 C 87.200 139.622,99.125 151.682,113.700 166.201 L 140.200 192.600 113.900 166.199 C 99.435 151.678,87.600 139.619,87.600 139.400 C 87.600 139.181,99.434 127.167,113.899 112.701 C 128.363 98.236,140.108 86.400,139.998 86.400 C 139.888 86.400,127.963 98.236,113.499 112.701 M166.500 112.601 C 180.965 127.122,192.800 139.181,192.800 139.400 C 192.800 139.619,180.965 151.678,166.500 166.199 L 140.200 192.600 166.700 166.201 C 181.275 151.682,193.200 139.621,193.200 139.400 C 193.200 139.179,181.275 127.118,166.700 112.599 L 140.200 86.200 166.500 112.601 M174.699 173.901 C 160.234 188.367,148.400 200.382,148.400 200.602 C 148.400 200.822,160.325 212.882,174.900 227.401 L 201.400 253.800 175.100 227.399 C 160.635 212.878,148.800 200.819,148.800 200.600 C 148.800 200.381,160.634 188.367,175.099 173.901 C 189.563 159.436,201.308 147.600,201.198 147.600 C 201.088 147.600,189.163 159.436,174.699 173.901 M227.700 173.801 C 242.165 188.322,254.000 200.381,254.000 200.600 C 254.000 200.819,242.165 212.878,227.700 227.399 L 201.400 253.800 227.900 227.401 C 242.475 212.882,254.400 200.821,254.400 200.600 C 254.400 200.379,242.475 188.318,227.900 173.799 L 201.400 147.400 227.700 173.801 M297.499 173.901 C 283.034 188.367,271.200 200.382,271.200 200.602 C 271.200 200.822,283.125 212.882,297.700 227.401 L 324.200 253.800 297.900 227.399 C 283.435 212.878,271.600 200.819,271.600 200.600 C 271.600 200.381,283.434 188.367,297.899 173.901 C 312.363 159.436,324.108 147.600,323.998 147.600 C 323.888 147.600,311.963 159.436,297.499 173.901 M350.500 173.801 C 364.965 188.322,376.800 200.381,376.800 200.600 C 376.800 200.819,364.965 212.878,350.500 227.399 L 324.200 253.800 350.700 227.401 C 365.275 212.882,377.200 200.821,377.200 200.600 C 377.200 200.379,365.275 188.318,350.700 173.799 L 324.200 147.400 350.500 173.801 M174.699 296.301 C 160.234 310.767,148.400 322.782,148.400 323.002 C 148.400 323.222,160.325 335.282,174.900 349.801 L 201.400 376.200 175.100 349.799 C 160.635 335.278,148.800 323.219,148.800 323.000 C 148.800 322.781,160.634 310.767,175.099 296.301 C 189.563 281.836,201.308 270.000,201.198 270.000 C 201.088 270.000,189.163 281.836,174.699 296.301 M227.700 296.201 C 242.165 310.722,254.000 322.781,254.000 323.000 C 254.000 323.219,242.165 335.278,227.700 349.799 L 201.400 376.200 227.900 349.801 C 242.475 335.282,254.400 323.221,254.400 323.000 C 254.400 322.779,242.475 310.718,227.900 296.199 L 201.400 269.800 227.700 296.201 " stroke="none" fill="#b4b4b4" fill-rule="evenodd"></path><path id="path3" d="M198.000 28.200 C 196.361 29.850,195.110 31.200,195.220 31.200 C 195.330 31.200,196.761 29.850,198.400 28.200 C 200.039 26.550,201.290 25.200,201.180 25.200 C 201.070 25.200,199.639 26.550,198.000 28.200 M259.600 89.400 C 257.961 91.050,256.710 92.400,256.820 92.400 C 256.930 92.400,258.361 91.050,260.000 89.400 C 261.639 87.750,262.890 86.400,262.780 86.400 C 262.670 86.400,261.239 87.750,259.600 89.400 M75.200 150.600 C 73.561 152.250,72.310 153.600,72.420 153.600 C 72.530 153.600,73.961 152.250,75.600 150.600 C 77.239 148.950,78.490 147.600,78.380 147.600 C 78.270 147.600,76.839 148.950,75.200 150.600 M136.800 211.800 C 135.161 213.450,133.910 214.800,134.020 214.800 C 134.130 214.800,135.561 213.450,137.200 211.800 C 138.839 210.150,140.090 208.800,139.980 208.800 C 139.870 208.800,138.439 210.150,136.800 211.800 M259.600 211.800 C 257.961 213.450,256.710 214.800,256.820 214.800 C 256.930 214.800,258.361 213.450,260.000 211.800 C 261.639 210.150,262.890 208.800,262.780 208.800 C 262.670 208.800,261.239 210.150,259.600 211.800 " stroke="none" fill="#90a09c" fill-rule="evenodd"></path><path id="path4" d="" stroke="none" fill="#9084a0" fill-rule="evenodd"></path></g></svg>